<svg width="56" height="56" viewBox="0 0 56 56" fill="none" xmlns="http://www.w3.org/2000/svg">
<path d="M39.4766 1.14461C43.5782 0.282274 47.4355 3.41217 47.4355 7.60359V10.2335H55.0645V54.9971H1.00098V10.2335H2.64551C3.56096 9.19238 4.80546 8.43604 6.24219 8.13386L39.4766 1.14461ZM4.40332 13.4327C4.27123 13.7964 4.2002 14.1879 4.2002 14.5928V51.797H51.8652V40.7091H39.6621C36.5693 40.7091 34.0625 38.2013 34.0625 35.1085V30.1202C34.0627 27.0276 36.5694 24.5206 39.6621 24.5206H51.8652V13.4327H4.40332ZM28.0332 40.1075C28.9165 40.1079 29.6328 40.8237 29.6328 41.7071C29.6326 42.5903 28.9164 43.3063 28.0332 43.3067H12.7734C11.8899 43.3067 11.1741 42.5905 11.1738 41.7071C11.1739 40.8235 11.8898 40.1075 12.7734 40.1075H28.0332ZM39.6621 27.7198C38.3367 27.7198 37.2619 28.7949 37.2617 30.1202V35.1085C37.2617 36.434 38.3366 37.5089 39.6621 37.5089H51.8643V27.7198H39.6621ZM42.5283 31.0147C43.4118 31.0148 44.1278 31.7308 44.1279 32.6143C44.1279 33.4979 43.4119 34.2139 42.5283 34.2139H42.0195C41.136 34.2138 40.4199 33.4979 40.4199 32.6143C40.42 31.7309 41.1361 31.0149 42.0195 31.0147H42.5283ZM44.2354 7.60359C44.2354 5.44448 42.2486 3.83244 40.1357 4.27644L11.8057 10.2335H44.2354V7.60359Z" fill="black"/>
</svg>
